<svg width="100%" style="" viewBox="0 0 250 250" fill="none" xmlns="http://www.w3.org/2000/svg">
<path d="M26.25 161.186C21.9854 140.273 45.8917 121.99 49.0271 117.511C55.9854 106.448 37.4334 104.292 46.3188 67.8335C55.2042 31.3751 121.84 46.0418 137.938 54.3168C154.035 62.5918 172.133 53.7501 188.738 58.2626C203.5 62.273 213.879 78.371 211.446 93.471C209.458 105.781 200.196 117.142 202.64 129.367C209.144 151.679 237.825 161.798 216.517 188.04C195.208 214.281 171.794 187.386 123.304 202.154C74.8146 216.923 30.5104 182.098 26.25 161.186Z" fill="#EBE9F0"/>
<path d="M57.4083 168.925H56.1167C54.825 168.925 53.7813 167.7 53.7875 166.206L54.2292 34.1333C54.2286 33.9037 54.2688 33.6759 54.3479 33.4604C54.5179 32.9824 54.8476 32.5777 55.2813 32.3145C55.4062 32.2385 55.5372 32.173 55.6729 32.1187C55.9609 32.0087 56.2667 31.9529 56.575 31.9541L180.029 32.2916C180.431 32.2939 180.82 32.4352 181.129 32.6916C181.179 32.7325 181.226 32.7763 181.271 32.8229C181.486 33.0408 181.655 33.2997 181.769 33.5841C181.882 33.8686 181.937 34.1729 181.931 34.4791L181.488 166.562C181.488 168.079 180.654 169.271 179.577 169.271L57.4083 168.925Z" fill="white"/>
<path d="M56.575 32.456L180.027 32.806C180.314 32.8083 180.59 32.9099 180.81 33.0935C180.848 33.1227 180.881 33.156 180.917 33.1894C181.083 33.3607 181.215 33.5635 181.302 33.786C181.39 34.0084 181.432 34.2461 181.427 34.4852L181.404 40.6894L180.988 166.562C180.988 167.779 180.363 168.762 179.583 168.762H177.69L57.4208 168.423H56.1271C55.1167 168.423 54.3 167.431 54.3042 166.212L54.7458 34.1289C54.7456 33.9584 54.7752 33.7892 54.8333 33.6289C54.9643 33.2583 55.2198 32.9447 55.5563 32.7414C55.6552 32.6795 55.7598 32.6271 55.8688 32.5852C56.0977 32.4983 56.3406 32.4539 56.5854 32.4539M56.5854 31.4435C56.2159 31.4425 55.8494 31.5096 55.5042 31.6414C55.3371 31.7057 55.1767 31.7859 55.025 31.881C54.4917 32.2057 54.0869 32.7047 53.8792 33.2935C53.7829 33.5608 53.7336 33.8427 53.7333 34.1269L53.2938 166.2C53.2938 167.969 54.5542 169.416 56.1229 169.425H57.4188L177.685 169.762H179.581C180.938 169.762 182 168.352 182.004 166.552L182.421 40.6789L182.442 34.4769C182.448 34.1024 182.379 33.7305 182.239 33.383C182.099 33.0356 181.891 32.7197 181.627 32.4539C181.57 32.3954 181.51 32.3405 181.446 32.2894C181.047 31.9626 180.547 31.7831 180.031 31.781L56.5813 31.4331L56.5854 31.4435Z" fill="#37453F"/>
<path d="M181.425 34.6727L181.404 41.4456L54.7167 41.0581L54.7375 34.2831C54.7392 33.7973 54.9336 33.3319 55.2782 32.9893C55.6227 32.6468 56.0891 32.455 56.575 32.4561L180.029 32.8352C180.802 32.8373 181.429 33.6602 181.425 34.6727Z" fill="#07789B"/>
<path d="M59.1708 38.5666C60.0303 38.5666 60.7271 37.8698 60.7271 37.0104C60.7271 36.1509 60.0303 35.4541 59.1708 35.4541C58.3113 35.4541 57.6146 36.1509 57.6146 37.0104C57.6146 37.8698 58.3113 38.5666 59.1708 38.5666Z" fill="#FF5F57"/>
<path d="M64.575 38.5666C65.4345 38.5666 66.1312 37.8698 66.1312 37.0104C66.1312 36.1509 65.4345 35.4541 64.575 35.4541C63.7155 35.4541 63.0187 36.1509 63.0187 37.0104C63.0187 37.8698 63.7155 38.5666 64.575 38.5666Z" fill="#FEBC2E"/>
<path d="M69.9812 38.5666C70.8407 38.5666 71.5375 37.8698 71.5375 37.0104C71.5375 36.1509 70.8407 35.4541 69.9812 35.4541C69.1217 35.4541 68.425 36.1509 68.425 37.0104C68.425 37.8698 69.1217 38.5666 69.9812 38.5666Z" fill="#27C840"/>
<path d="M144.302 78.6248H88.3333C88.1504 78.6248 87.975 78.5521 87.8457 78.4228C87.7164 78.2935 87.6437 78.1181 87.6437 77.9352C87.6437 77.7523 87.7164 77.5769 87.8457 77.4476C87.975 77.3183 88.1504 77.2456 88.3333 77.2456H144.312C144.495 77.2456 144.671 77.3183 144.8 77.4476C144.929 77.5769 145.002 77.7523 145.002 77.9352C145.002 78.1181 144.929 78.2935 144.8 78.4228C144.671 78.5521 144.495 78.6248 144.312 78.6248H144.302Z" fill="#444142"/>
<path d="M139.842 84.6394H92.7813C92.5984 84.6394 92.423 84.5668 92.2937 84.4375C92.1643 84.3081 92.0917 84.1327 92.0917 83.9498C92.0917 83.7669 92.1643 83.5916 92.2937 83.4622C92.423 83.3329 92.5984 83.2603 92.7813 83.2603H139.842C140.025 83.2603 140.2 83.3329 140.329 83.4622C140.459 83.5916 140.531 83.7669 140.531 83.9498C140.531 84.1327 140.459 84.3081 140.329 84.4375C140.2 84.5668 140.025 84.6394 139.842 84.6394Z" fill="#444142"/>
<path d="M126.95 70.0771H105.675C105.41 70.0771 105.196 70.2917 105.196 70.5563V72.7521C105.196 73.0168 105.41 73.2313 105.675 73.2313H126.95C127.215 73.2313 127.429 73.0168 127.429 72.7521V70.5563C127.429 70.2917 127.215 70.0771 126.95 70.0771Z" fill="#444142"/>
<path d="M163.885 126.667C158.33 125.572 152.567 126.661 147.795 129.708C143.023 132.755 139.61 137.525 138.266 143.025C136.922 148.526 137.751 154.332 140.581 159.236C143.41 164.141 148.022 167.765 153.456 169.354C153.456 169.384 153.44 169.413 153.433 169.442L144.683 214.65C144.633 214.907 144.633 215.171 144.685 215.427C144.736 215.684 144.837 215.928 144.983 216.145C145.129 216.362 145.316 216.549 145.534 216.694C145.751 216.839 145.995 216.939 146.252 216.99C146.509 217.04 146.773 217.04 147.029 216.989C147.286 216.937 147.53 216.836 147.747 216.69C147.964 216.544 148.15 216.357 148.295 216.14C148.44 215.922 148.541 215.678 148.592 215.421L157.342 170.213C157.342 170.184 157.342 170.154 157.354 170.123C162.987 170.716 168.632 169.113 173.113 165.647C177.593 162.181 180.564 157.121 181.406 151.519C182.248 145.918 180.896 140.207 177.632 135.578C174.368 130.948 169.444 127.756 163.885 126.667ZM177.481 151.761C176.786 155.289 175.06 158.533 172.522 161.081C169.983 163.629 166.746 165.366 163.22 166.075C159.694 166.783 156.037 166.43 152.712 165.06C149.386 163.69 146.542 161.365 144.538 158.378C142.534 155.392 141.46 151.878 141.453 148.281C141.446 144.685 142.506 141.167 144.498 138.172C146.49 135.178 149.326 132.842 152.646 131.459C155.966 130.075 159.621 129.708 163.15 130.402C167.883 131.334 172.051 134.108 174.739 138.113C177.427 142.119 178.413 147.028 177.481 151.761Z" fill="#18161F"/>
<path d="M154.274 184.51L150.884 183.787C150.01 183.6 149.15 184.158 148.963 185.032L142.601 214.859C142.415 215.734 142.973 216.594 143.847 216.78L147.237 217.503C148.112 217.69 148.972 217.132 149.158 216.258L155.52 186.431C155.706 185.556 155.149 184.696 154.274 184.51Z" fill="#1A4B98"/>
<path d="M187.029 117.329C184.421 117.356 181.821 117.448 179.206 117.538C179.525 113.465 179.781 109.39 180.092 105.319C182.139 105.344 184.186 105.365 186.233 105.381C186.458 109.375 186.729 113.35 187.029 117.329Z" fill="#F485B7"/>
<path d="M177.854 109.321H179.206C182.254 109.321 187.658 106.852 187.658 103.804V100.939C187.659 100.214 187.517 99.4964 187.24 98.8264C186.963 98.1563 186.557 97.5474 186.045 97.0345C185.532 96.5216 184.924 96.1147 184.254 95.837C183.585 95.5594 182.867 95.4165 182.142 95.4165H180.79C179.326 95.4165 177.923 95.9977 176.889 97.0323C175.854 98.0669 175.273 99.4701 175.273 100.933V103.798C175.273 106.852 174.808 109.321 177.854 109.321Z" fill="#F485B7"/>
<path d="M180.626 93.5805L175.908 94.8181C174.367 95.2225 173.445 96.7999 173.849 98.3413L173.85 98.3433C174.254 99.8847 175.832 100.806 177.373 100.402L182.091 99.1645C183.632 98.7601 184.554 97.1827 184.149 95.6413L184.149 95.6393C183.744 94.0979 182.167 93.1761 180.626 93.5805Z" fill="#1A4B98"/>
<path d="M166.269 124.875L165.59 126.763L164.908 128.65L181.231 133.615L187.948 128.406C188.395 128.077 188.768 127.657 189.042 127.174C189.317 126.691 189.486 126.155 189.54 125.602C189.593 125.049 189.53 124.491 189.354 123.964C189.177 123.437 188.892 122.953 188.517 122.544C188.141 122.137 187.683 121.813 187.174 121.594C186.665 121.374 186.116 121.264 185.562 121.271C185.008 121.277 184.461 121.4 183.957 121.631C183.453 121.862 183.004 122.197 182.637 122.613L178.237 127.627L166.269 124.875Z" fill="#F485B7"/>
<path d="M159.948 124.727C159.764 125.237 159.783 125.798 160 126.295C160.217 126.791 160.616 127.186 161.115 127.398L163.963 128.606C164.228 128.718 164.513 128.775 164.801 128.774C165.089 128.772 165.374 128.711 165.638 128.596C165.902 128.481 166.14 128.313 166.337 128.102C166.534 127.892 166.686 127.644 166.783 127.373L166.898 127.054C166.996 126.783 167.038 126.495 167.02 126.208C167.003 125.92 166.928 125.639 166.798 125.382C166.669 125.125 166.488 124.897 166.267 124.712C166.047 124.527 165.79 124.389 165.515 124.306L162.55 123.417C162.031 123.261 161.472 123.31 160.988 123.554C160.504 123.797 160.132 124.217 159.948 124.727Z" fill="#F485B7"/>
<path d="M187.254 115.75L180.504 122.777L187.048 129.064C187.4 129.402 188.008 129.339 188.408 128.923L194.435 122.65C194.76 122.312 195.016 121.913 195.186 121.476C195.357 121.039 195.44 120.573 195.431 120.104C195.421 119.635 195.319 119.172 195.131 118.743C194.943 118.313 194.672 117.925 194.333 117.6L192.304 115.65C191.621 114.994 190.705 114.636 189.758 114.655C188.812 114.673 187.911 115.067 187.254 115.75Z" fill="#F1F29D"/>
<path d="M175.165 113.558H192.773C193.449 113.558 194.097 113.827 194.575 114.304C195.052 114.782 195.321 115.43 195.321 116.106V141.344H172.612V116.106C172.612 115.771 172.679 115.439 172.807 115.13C172.935 114.821 173.123 114.54 173.36 114.303C173.597 114.066 173.879 113.879 174.188 113.751C174.498 113.623 174.83 113.558 175.165 113.558Z" fill="#07789B"/>
<path d="M192.865 207.538L190.379 207.927C190.169 207.961 189.978 208.072 189.845 208.238C189.712 208.404 189.645 208.614 189.658 208.827L190.027 214.742L194.04 214.654L193.852 208.358C193.849 208.237 193.819 208.118 193.766 208.009C193.713 207.899 193.637 207.803 193.544 207.725C193.45 207.647 193.341 207.591 193.224 207.558C193.107 207.526 192.985 207.519 192.865 207.538Z" fill="#E17BA9"/>
<path d="M194.008 213.362L194.09 217.089L180.29 217.391C180.217 214.106 189.929 213.452 189.929 213.452L194.008 213.362Z" fill="#0B0759"/>
<path d="M186.648 210.548L191.177 210.219L195.706 209.892L195.181 173.487L195.421 139.415H180.9L184.448 174.527L186.648 210.548Z" fill="#18161F"/>
<path d="M172.89 205.819L173.262 215.063H177.275L177.208 206.388C177.207 206.271 177.164 206.158 177.088 206.069C177.012 205.98 176.907 205.921 176.792 205.902L173.458 205.311C173.386 205.3 173.313 205.305 173.243 205.326C173.173 205.347 173.109 205.383 173.055 205.431C173 205.48 172.957 205.54 172.929 205.607C172.9 205.674 172.887 205.746 172.89 205.819Z" fill="#F485B7"/>
<path d="M177.273 213.771V217.5H163.469C163.469 214.215 173.194 213.773 173.194 213.773L177.273 213.771Z" fill="#0D096C"/>
<path d="M170.127 209.715L174.667 209.76L179.208 209.804L180.25 175.367L185.971 139.415H172.775L169.685 173.202L170.127 209.715Z" fill="#262432"/>
<path d="M185.73 93.1292L182.305 93.2943C179.585 93.4254 177.486 95.737 177.617 98.4573L177.856 103.412C177.987 106.132 180.298 108.231 183.019 108.1L186.444 107.935C189.164 107.804 191.263 105.492 191.132 102.772L190.893 97.8172C190.762 95.0969 188.45 92.998 185.73 93.1292Z" fill="#1A4B98"/>
<path d="M175.869 102.736C175.869 104.311 177.069 105.306 178.515 105.202C179.241 105.157 179.923 104.84 180.425 104.313C180.927 103.787 181.212 103.09 181.223 102.363C181.223 100.79 180.023 99.7918 178.575 99.8939C177.848 99.9376 177.165 100.255 176.663 100.782C176.161 101.31 175.877 102.007 175.869 102.736Z" fill="#F485B7"/>
<path d="M183.494 101.075L183.198 98.7668L182.902 96.4585L160.588 104.667C160.424 104.725 160.277 104.82 160.157 104.945C160.037 105.07 159.947 105.221 159.895 105.387C159.843 105.552 159.831 105.727 159.858 105.898C159.885 106.069 159.951 106.232 160.052 106.373L166.265 115.081C166.556 115.553 166.943 115.958 167.401 116.272C167.858 116.585 168.376 116.8 168.921 116.903C169.466 117.005 170.026 116.993 170.566 116.866C171.106 116.74 171.613 116.502 172.056 116.169C172.504 115.832 172.875 115.405 173.147 114.915C173.418 114.425 173.583 113.884 173.632 113.326C173.68 112.768 173.61 112.206 173.427 111.677C173.244 111.148 172.952 110.663 172.569 110.254L170.044 106.504L183.494 101.075Z" fill="#F485B7"/>
<path d="M188.831 97.6856C188.665 96.3898 187.702 95.4814 186.637 95.6127L183.71 95.9752C182.558 96.1169 181.742 97.4127 181.921 98.8127L181.971 99.2023C182.15 100.6 183.252 101.527 184.383 101.231L187.26 100.479C188.306 100.209 188.996 98.9794 188.831 97.6856Z" fill="#F485B7"/>
<path d="M171.281 122.371L164.546 114.888L171.292 108.817C171.654 108.492 172.26 108.575 172.646 109.004L178.688 115.711C179.263 116.35 179.561 117.193 179.516 118.052C179.47 118.912 179.086 119.718 178.446 120.294L175.873 122.611C175.556 122.897 175.186 123.118 174.783 123.261C174.381 123.404 173.954 123.466 173.527 123.444C173.101 123.422 172.683 123.315 172.297 123.131C171.912 122.947 171.567 122.689 171.281 122.371Z" fill="#07789B"/>
</svg>